<svg width="145" height="153" viewBox="0 0 145 153" fill="none" xmlns="http://www.w3.org/2000/svg">
<path d="M64.7854 114.291C53.1846 114.291 41.8445 110.642 35.7182 107.383L37.4127 103.994C43.148 106.992 53.8364 110.381 64.7854 110.381C70.1296 110.381 78.9932 109.338 78.9932 102.039C78.9932 97.2161 75.0828 94.0878 62.0482 88.8739C40.9321 80.1407 30.374 67.4971 30.374 51.5949C30.374 28.0022 49.6653 12.1 78.4718 12.1C92.6795 12.1 102.455 15.2283 108.191 17.8352L106.627 21.2242C101.152 18.878 91.8975 15.88 78.4718 15.88C51.4901 15.88 34.0237 29.9574 34.0237 51.5949C34.0237 65.8026 43.93 77.2731 63.482 85.6153C76.5166 90.8291 82.6429 94.7395 82.6429 102.169C82.7732 105.819 80.9484 114.291 64.7854 114.291Z" fill="white"/>
<path d="M64.2641 122.894C52.4025 122.894 40.4107 119.505 33.8934 116.116L35.5879 112.727C41.7142 115.856 53.0543 119.114 64.2641 119.114C80.0359 119.114 89.4209 112.467 89.4209 101.387C89.4209 92.9147 83.6856 87.3098 68.9565 81.1835C49.4046 72.9717 40.6714 63.5868 40.6714 50.6825C40.6714 32.6947 55.7915 20.7028 78.3414 20.7028C91.2457 20.7028 100.5 23.8312 106.105 26.4381L104.541 29.6967C99.3272 27.2202 90.594 24.3525 78.3414 24.3525C57.7467 24.3525 44.4514 34.6499 44.4514 50.6825C44.4514 61.7619 52.4025 70.1041 70.3903 77.7945C86.5533 84.4422 93.2009 91.2202 93.2009 101.387C93.2009 111.815 85.5105 122.894 64.2641 122.894Z" fill="white"/>
<path d="M63.7427 131.497C50.8384 131.497 38.4555 128.108 31.9382 124.719L33.6327 121.46C39.4983 124.589 51.4901 127.847 63.6123 127.847C85.9015 127.847 99.7182 117.42 99.7182 100.735C99.7182 88.7436 92.2885 80.4014 75.7345 73.6234C60.484 67.1061 50.9687 60.9798 50.9687 50.0307C50.9687 37.5175 61.6571 29.436 78.2111 29.436C87.4657 29.436 96.1989 31.2609 104.02 35.0409L102.456 38.4299C95.1561 34.9106 86.9443 33.2161 78.2111 33.2161C64.0034 33.2161 54.7488 39.8637 54.7488 50.1611C54.7488 57.9819 60.6144 63.1957 77.1683 70.2344C95.2865 77.4035 103.629 87.0491 103.629 100.605C103.629 115.465 93.2009 131.497 63.7427 131.497Z" fill="white"/>
<path d="M63.3516 140.1C49.5349 140.1 36.5003 136.581 30.2437 133.322L31.9382 130.063C37.9341 133.192 50.708 136.45 63.3516 136.45C92.2885 136.45 110.276 122.503 110.276 99.9534C110.276 84.4422 101.543 73.6234 82.6429 65.8026C68.0441 59.4157 61.5268 56.2874 61.5268 48.988C61.5268 43.7741 65.9586 37.7782 78.2111 37.7782C86.6836 37.7782 94.5044 39.603 102.195 43.2527L100.631 46.6417C93.4616 43.2527 86.1622 41.5582 78.3414 41.5582C70.3903 41.5582 65.3068 44.4259 65.3068 49.1183C65.3068 53.6804 69.3476 56.0267 84.207 62.2833C104.28 70.6255 114.056 82.878 114.056 99.823C114.056 124.328 94.1133 140.1 63.3516 140.1Z" fill="white"/>
</svg>
